<?xml version="1.0" standalone="no"?>
<!DOCTYPE svg PUBLIC "-//W3C//DTD SVG 20010904//EN"
 "http://www.w3.org/TR/2001/REC-SVG-20010904/DTD/svg10.dtd">
<svg version="1.0" xmlns="http://www.w3.org/2000/svg"
 width="2500.000000pt" height="2500.000000pt" viewBox="0 0 2500.000000 2500.000000"
 preserveAspectRatio="xMidYMid meet">
<metadata>
Created by potrace 1.14, written by Peter Selinger 2001-2017
</metadata>
<g transform="translate(0.000000,2500.000000) scale(0.100000,-0.100000)"
fill="#000000" stroke="none">
<path d="M12165 24054 c-603 -30 -1021 -72 -1494 -150 -969 -159 -1908 -439
-2826 -841 -222 -97 -726 -347 -935 -464 -1194 -665 -2247 -1514 -3132 -2524
l-149 -170 1195 -3 1196 -2 162 136 c699 583 1508 1087 2325 1447 1036 457
2065 727 3148 826 381 35 580 45 915 45 904 0 1852 -133 2705 -378 1238 -356
2325 -899 3335 -1664 670 -508 1288 -1116 1806 -1777 816 -1039 1401 -2193
1768 -3485 241 -849 370 -1780 370 -2675 0 -1317 -269 -2640 -787 -3866 l-74
-174 -869 0 c-796 0 -876 2 -957 18 -172 35 -279 84 -432 198 -146 108 -269
247 -457 514 -83 117 -182 254 -542 740 -97 132 -201 274 -231 315 -30 41
-134 183 -231 315 -97 132 -209 283 -248 336 -384 523 -718 975 -793 1078 -51
69 -90 128 -85 131 4 4 34 12 67 19 100 21 375 109 530 170 641 252 1297 760
1658 1283 349 505 524 1165 504 1898 -15 538 -114 968 -322 1398 -218 449
-498 790 -894 1087 -200 150 -476 308 -667 380 -288 110 -432 148 -779 204
-260 43 -541 75 -785 90 -95 6 -2729 13 -6841 17 l-6686 7 -101 -169 c-893
-1500 -1444 -3187 -1601 -4911 -39 -419 -45 -582 -45 -1078 0 -496 6 -659 45
-1078 164 -1796 758 -3561 1712 -5092 1059 -1698 2506 -3073 4267 -4054 209
-117 713 -367 935 -464 1179 -516 2398 -832 3650 -946 421 -39 585 -45 1075
-45 490 0 654 6 1075 45 1252 114 2471 430 3650 946 222 97 726 347 935 464
1387 773 2566 1777 3541 3018 l147 186 -1125 3 -1124 2 -217 -204 c-331 -311
-537 -487 -842 -718 -1010 -765 -2097 -1308 -3335 -1664 -853 -245 -1801 -378
-2705 -378 -904 0 -1852 133 -2705 378 -1238 356 -2325 899 -3335 1664 -670
508 -1288 1116 -1806 1777 -816 1039 -1401 2193 -1768 3485 -241 849 -370
1780 -370 2675 0 1496 336 2947 1009 4363 l67 140 1641 7 c903 3 2398 5 3322
3 l1680 -3 100 -23 c55 -13 126 -38 158 -55 103 -54 183 -168 225 -319 16 -59
17 -247 17 -3138 0 -3196 0 -3190 -41 -3507 -59 -456 -251 -857 -534 -1114
-264 -239 -548 -340 -925 -326 -365 13 -646 133 -890 381 -156 159 -234 300
-320 582 -78 256 -95 421 -95 934 0 273 -4 403 -15 477 -64 453 -286 827 -596
1006 -68 39 -182 82 -289 108 -84 21 -118 23 -295 23 -182 0 -208 -3 -295 -26
-279 -75 -484 -206 -678 -433 -244 -285 -382 -611 -444 -1045 -20 -144 -17
-621 5 -775 70 -484 206 -875 455 -1315 428 -756 1112 -1323 1932 -1603 742
-253 1726 -295 2602 -111 827 173 1561 617 2075 1256 369 460 626 973 737
1475 90 407 116 771 123 1776 l6 677 396 0 397 0 309 -482 c170 -266 332 -519
360 -563 28 -44 253 -396 500 -782 248 -387 492 -769 544 -850 511 -803 973
-1521 1015 -1578 29 -38 63 -87 76 -107 13 -20 27 -35 30 -33 3 2 11 -9 18
-24 6 -15 52 -78 102 -139 49 -62 90 -117 90 -122 0 -10 3 -11 33 -14 6 0 12
-5 12 -11 0 -12 77 -95 89 -95 4 0 31 -20 58 -45 28 -25 56 -45 63 -45 7 0 18
-6 24 -14 13 -16 151 -86 169 -86 7 0 12 -4 12 -10 0 -5 17 -12 38 -16 20 -4
43 -11 49 -16 7 -6 19 -8 27 -5 7 3 19 0 25 -6 9 -9 622 -13 2529 -15 l2518
-3 81 153 c732 1378 1182 2879 1322 4415 39 419 45 582 45 1078 0 496 -6 659
-45 1078 -164 1796 -758 3561 -1712 5092 -1059 1698 -2506 3073 -4267 4054
-209 117 -713 367 -935 464 -1181 517 -2403 834 -3655 947 -124 11 -295 25
-380 30 -153 11 -958 21 -1095 14z m3162 -7484 c664 -37 992 -147 1274 -429
178 -178 292 -390 343 -636 8 -38 20 -99 28 -135 8 -42 13 -134 12 -260 0
-170 -4 -213 -28 -334 -35 -177 -66 -277 -125 -397 -140 -283 -341 -478 -656
-637 -167 -83 -357 -136 -635 -177 -268 -39 -445 -45 -1357 -45 l-863 0 0
1530 0 1530 918 0 c504 0 995 -5 1089 -10z"/>
</g>
</svg>
